<svg width="252" height="179" viewBox="0 0 252 179" fill="none" xmlns="http://www.w3.org/2000/svg">
<g clip-path="url(#clip0_44_678)">
<path d="M240.252 136.966H35.3549C28.8566 136.966 23.5699 140.174 23.5699 144.038C23.5699 146.736 26.1031 149.106 29.8112 150.309H11.785C5.28671 150.309 0 153.481 0 157.381C0 161.282 5.28671 164.454 11.785 164.454H18.0629C16.3007 165.693 15.236 167.298 15.236 169.047V171.891C15.236 175.792 20.5227 178.963 27.021 178.963H228.871C235.369 178.963 240.656 175.755 240.656 171.891V169.047C240.656 165.147 235.369 161.975 228.871 161.975L215.14 162.121C216.168 162.121 217.893 161.61 219.031 160.626C221.014 158.876 221.124 156.215 220.133 154.027C219.509 152.606 218.481 151.476 215.984 151.038L240.252 151.147C246.75 151.147 252.037 147.939 252.037 144.075C252 140.138 246.713 136.966 240.252 136.966Z" fill="#00895B"/>
<path d="M207.351 41.7423C207.719 42.9089 208.379 44.0755 208.159 45.2786C207.865 46.8097 206.14 47.867 206.177 49.4346C206.177 50.8199 207.572 51.7678 208.893 52.2053C210.215 52.6427 211.684 52.825 212.712 53.7364C213.666 54.5749 214.033 55.8144 214.547 56.981C215.061 58.1112 215.906 59.2778 217.154 59.4965C218.035 59.6423 218.953 59.2413 219.687 58.7309C220.421 58.2205 221.119 57.6372 221.963 57.2727C222.808 56.9081 223.836 56.8717 224.533 57.455C224.937 57.7831 225.157 58.2935 225.451 58.7309C226.295 60.0434 227.764 60.9548 229.306 61.0277C230.848 61.1006 232.463 60.3715 233.308 59.059C234.152 57.7466 234.152 55.9603 233.234 54.6843C232.757 53.9916 232.023 53.4812 231.399 52.8979C230.774 52.3146 230.224 51.5855 230.15 50.7106C230.114 49.7627 230.701 48.9242 231.142 48.0493C231.582 47.2108 231.839 46.0806 231.215 45.3515C230.628 44.6953 229.6 44.7317 228.829 44.3672C227.727 43.8568 227.14 42.6173 226.92 41.4142C226.699 40.2112 226.773 38.9717 226.516 37.7686C226.002 35.5083 224.203 33.6491 222.037 32.7376C219.871 31.8262 217.448 31.7898 215.171 32.2637C213.189 32.7012 209.921 33.5761 208.71 35.2896C207.315 37.1488 206.691 39.5185 207.351 41.7423Z" fill="#1C3009"/>
<path d="M169.096 54.9395C169.206 54.9395 169.316 54.9031 169.39 54.9395C170.308 55.0854 170.712 55.7051 171.519 56.0697C171.886 56.252 172.767 55.6687 172.914 56.5072C172.951 56.8353 172.951 57.6008 173.061 58.2571C173.208 59.2414 173.942 60.3715 174.713 61.1736C177.76 64.3088 181.542 66.5691 185.397 68.6471C185.617 68.7564 185.837 68.9023 186.094 68.9023C186.535 68.9023 186.902 68.5742 187.196 68.2461C188.628 66.7514 190.206 65.4025 191.895 64.1994C193.4 63.1422 195.052 62.1579 196.888 61.8662C198.724 61.5381 200.743 61.9756 201.991 63.3245C202.909 64.3452 203.313 65.8399 203.019 67.1524C202.248 70.4699 197.292 71.3448 194.538 72.3656C191.932 73.3499 189.252 74.152 186.535 74.7717C186.205 74.8446 185.837 74.9175 185.507 74.8446C185.14 74.7717 184.846 74.553 184.516 74.3707C180.624 71.7094 176.99 68.6835 173.428 65.6212C172.437 64.7827 172.033 63.5068 171.115 62.7412C170.528 62.2308 169.72 62.2672 169.059 61.9391C168.399 61.611 167.628 60.9913 167.187 60.4444C166.233 59.3507 166.6 57.8925 166.783 56.6165C166.82 56.2884 166.857 56.0697 167.04 55.8145C167.334 55.4135 167.774 55.2676 168.252 55.1218C168.545 55.0489 168.802 54.976 169.096 54.9395Z" fill="#FDDBD2"/>
<path d="M195.273 71.3084C193.547 69.1575 191.822 66.9701 190.059 64.8192C190.17 64.965 199.458 56.3978 200.009 55.9239C202.175 54.0646 204.451 52.1324 207.205 51.3304C213.115 49.6169 218.145 55.9239 214.584 61.1371C210.692 66.7878 204.304 71.4542 197.806 73.6416C197.659 73.678 197.512 73.7509 197.365 73.7145C197.182 73.678 197.035 73.4958 196.888 73.3499C196.374 72.6573 195.823 71.9646 195.273 71.3084Z" fill="#C51A1B"/>
<path d="M203.68 155.923L203.753 162.704L199.788 162.777L199.715 155.23L203.68 155.923Z" fill="#F4C99F"/>
<path d="M200.156 161.72L203.607 162.886L204.635 164.016L204.451 166.678L195.163 167.407C194.392 166.24 194.906 164.673 196.191 164.199L196.631 164.053L200.156 161.72Z" fill="#1C3009"/>
<path d="M232.17 149.398L234.813 155.668L231.142 157.236L228.241 150.309L232.17 149.398Z" fill="#F4C99F"/>
<path d="M231.215 157.345C231.362 157.199 231.509 157.053 231.692 156.944C232.133 156.616 235.657 154.72 235.951 155.559C235.988 155.705 235.988 155.85 235.951 155.996C235.657 158.475 235.107 160.918 234.262 163.251C233.895 164.235 233.381 165.365 232.353 165.621C231.913 165.73 231.435 165.657 230.995 165.548C230.334 165.402 229.673 165.183 229.049 164.964C228.829 164.891 228.572 164.746 228.462 164.527C228.205 164.089 228.645 163.579 229.086 163.324C229.526 163.069 230.04 162.923 230.261 162.449C230.371 162.23 230.371 162.011 230.371 161.793C230.481 160.116 230.187 158.512 231.215 157.345Z" fill="#1C3009"/>
<path d="M207.315 124.389C208.6 130.44 212.308 134.779 216.273 139.226C220.825 144.33 225.084 149.653 229.049 155.231C230.774 154.501 232.5 153.772 234.189 153.043C232.757 144.549 228.792 136.747 225.745 128.69C223.615 123.113 221.89 117.207 221.78 111.155C221.743 108.166 222.441 105.395 222.844 102.478C223.322 98.8693 223.358 95.1507 223.762 91.5051C223.909 90.302 223.983 88.8438 223.065 88.0418C222.661 87.6772 222.11 87.5314 221.596 87.422C202.101 83.5941 204.855 112.868 207.315 124.389Z" fill="#D2D0C8"/>
<path d="M223.212 92.6717C223.212 88.9896 222.771 85.4533 222.11 82.7556C216.566 82.4639 210.288 83.0837 204.781 84.2138C199.421 85.3075 196.08 86.5106 196.007 92.4529C195.934 103.39 191.748 112.686 189.949 123.186C188.885 129.274 190.72 134.742 192.739 140.393C195.052 146.846 196.998 153.444 198.614 160.116C200.486 160.116 202.322 160.079 204.194 160.079C206.03 151.658 205.259 142.908 205.442 134.305C205.552 128.326 206.14 122.165 208.306 116.55C210.692 110.353 214.107 112.832 218.035 109.259C221.853 105.723 223.212 99.015 223.212 92.6717Z" fill="#D2D0C8"/>
<path d="M216.934 50.6377C217.558 51.1116 218.072 51.6949 218.622 52.2782C219.1 52.7886 219.577 53.299 220.054 53.8458C221.706 55.6322 222.514 58.2935 223.248 60.5902C226.993 72.6572 228.315 89.2448 225.892 101.859C216.713 102.661 206.066 100.291 196.925 99.0151C196.044 98.9057 195.016 98.687 194.575 97.8849C194.281 97.411 194.281 96.8277 194.281 96.2809C194.281 88.2605 195.934 79.6568 197.512 71.7458C198.173 68.4283 198.981 65.1108 200.009 61.8662C201.11 58.4393 202.358 54.7572 204.928 52.1689C207.682 49.3982 212.968 48.0493 216.42 50.2002C216.566 50.346 216.75 50.4919 216.934 50.6377Z" fill="#C51A1B"/>
<path d="M215.906 52.3147C216.089 51.221 216.236 50.1273 216.42 49.0336C216.64 48.9242 216.86 48.8149 217.044 48.669C220.862 46.19 227.287 32.8106 217.08 29.7847C207.792 27.0505 208.306 40.0654 210.105 45.4973C210.399 46.4088 210.839 47.2837 211.427 48.0493C211.83 48.5597 211.941 48.4868 211.867 49.0701C211.794 49.6534 211.243 50.3096 211.096 50.9293C210.949 51.5855 211.023 52.3147 211.39 52.8615C211.61 53.1896 211.941 53.4448 212.308 53.6271C212.858 53.9187 213.519 54.101 214.143 53.9916C214.951 53.8823 215.795 53.1167 215.906 52.3147Z" fill="#FDDBD2"/>
<path d="M207.572 40.6123C208.122 42.3257 208.93 44.0027 209.921 45.4974C209.885 42.2892 210.252 39.0811 211.059 35.9823C211.133 35.7636 211.17 35.4719 211.059 35.2532C210.949 35.0709 210.692 34.998 210.472 34.9251C206.544 34.1231 206.58 37.5864 207.572 40.6123Z" fill="#1C3009"/>
<path d="M219.43 96.8277C219.357 96.7548 219.283 96.6819 219.246 96.5725C218.843 95.734 219.136 95.0778 218.953 94.1664C218.879 93.7654 217.888 93.3643 218.512 92.781C218.732 92.5623 219.393 92.1248 219.871 91.6509C220.605 90.9947 221.119 89.7187 221.339 88.625C221.743 86.5835 220.531 80.5682 223.065 79.5839C228.975 77.2142 224.827 89.4635 224.717 90.5937C224.643 91.3593 225.121 92.0155 225.231 92.7446C225.304 93.4737 225.267 94.458 225.084 95.1507C224.717 96.536 223.322 97.0829 222.147 97.7026C221.853 97.8485 221.67 97.9578 221.339 97.9578C220.825 97.9578 220.458 97.6662 220.054 97.3745C219.871 97.2287 219.65 97.0464 219.43 96.8277Z" fill="#FDDBD2"/>
<path d="M219.871 52.7521C220.128 53.0073 220.421 53.4448 220.825 53.9187C222.991 56.3977 224.35 60.4079 225.414 63.4702C227.691 69.9959 228.498 76.9955 227.727 83.8492C227.691 84.1044 227.654 84.3596 227.47 84.5419C227.287 84.6877 226.993 84.6877 226.736 84.6877C225.157 84.5784 223.615 84.469 222.037 84.3596C221.706 84.3232 221.339 84.3232 221.082 84.1044C220.531 83.7399 220.495 82.9743 220.495 82.3181C220.531 78.0163 220.017 73.7509 218.953 69.5949C218.439 67.6262 217.117 65.293 216.97 63.3244C216.86 61.538 217.631 59.4965 217.521 57.5279C217.448 56.3613 217.337 54.6114 218.072 53.5906C218.99 52.2417 219.357 52.2053 219.871 52.7521Z" fill="#C51A1B"/>
<path d="M216.677 34.8886C218.255 35.2531 219.797 36.1645 220.605 37.5863C221.523 39.2633 221.192 41.3778 220.458 43.1277C219.724 44.8776 218.549 46.4452 217.741 48.1586C217.448 48.7784 217.191 49.544 217.558 50.0908C217.925 50.6741 218.769 50.747 219.393 50.4554C220.017 50.1637 220.458 49.6169 220.862 49.07C222.624 46.7368 224.276 44.3307 225.267 41.5965C226.259 38.8623 226.516 35.7635 225.414 33.0658C224.093 29.8212 220.788 27.4515 217.264 27.2692C213.739 27.0505 210.178 29.0191 208.489 32.0814C208.012 32.9199 207.682 33.9043 207.902 34.8521C208.122 35.8 209.003 36.6385 209.995 36.4927C211.17 36.3104 211.28 35.0344 212.198 34.6334C213.299 34.1959 215.538 34.6334 216.677 34.8886Z" fill="#1C3009"/>
<path d="M218.035 172.474L205.736 169.12C204.965 168.902 204.488 168.099 204.708 167.334L210.509 146.481L225.598 150.601L219.797 171.453C219.614 172.219 218.806 172.657 218.035 172.474Z" fill="#443A00"/>
<path d="M132.97 149.179L123.021 146.445C121.589 146.043 120.781 144.585 121.149 143.2L126.619 123.514L141.708 127.633L136.238 147.319C135.871 148.741 134.402 149.58 132.97 149.179Z" fill="#443A00"/>
<path d="M221.67 79.6568L168.435 65.1108C164.36 63.9806 159.955 65.767 157.495 69.4855L140.937 94.6038L127.353 108.603C126.802 109.15 126.399 109.843 126.215 110.608L121.332 128.144C120.635 130.623 122.103 133.175 124.563 133.867L221.266 161.282C223.799 162.011 226.406 160.517 227.103 158.038L231.802 141.122C231.986 140.502 232.023 139.882 231.913 139.226L229.049 118.665L228.755 118.592L228.792 89.4271C228.792 84.7971 225.892 80.8234 221.67 79.6568Z" fill="#FCD600"/>
<path d="M213.336 114.4L155.769 98.6505C152.759 97.812 151.547 94.0935 153.383 91.3593L165.792 72.7301C166.93 71.0531 168.913 70.2511 170.748 70.7615L215.795 83.0837C217.705 83.5941 219.026 85.4169 219.063 87.5314L219.136 109.587C219.173 112.759 216.236 115.165 213.336 114.4Z" fill="#F3F2EE"/>
<g opacity="0.14">
<path d="M219.026 104.593C215.612 101.202 211.977 98.0307 208.453 94.7861C204.01 90.703 199.678 86.5105 195.273 82.4274C192.96 80.2765 190.647 78.1256 188.371 75.9382L170.638 71.0895C169.867 70.8708 169.096 70.9073 168.362 71.0895C168.399 71.126 168.399 71.126 168.435 71.1624C170.712 73.3863 173.024 75.6101 175.301 77.8339C179.413 81.8077 183.488 85.8178 187.379 89.9739C191.271 94.0934 194.942 98.3952 198.907 102.478C202.615 106.306 206.36 110.061 210.105 113.853L213.226 114.728C216.126 115.53 219.063 113.087 219.063 109.915L219.026 104.593Z" fill="#D2D0C8"/>
<path d="M194.612 102.077C190.61 97.8119 186.792 93.4007 182.753 89.1718C178.715 85.0158 174.566 81.0056 170.418 76.9589C168.949 75.5371 167.481 74.1154 166.012 72.6571C165.902 72.7665 165.829 72.9123 165.755 73.0217L159.955 81.6618C161.093 82.9013 162.267 84.1044 163.369 85.3439C169.941 92.6351 176.512 99.9628 183.671 106.671L204.635 112.394C201.257 108.967 197.879 105.541 194.612 102.077Z" fill="#D2D0C8"/>
</g>
<path d="M228.094 114.035L231.619 113.342C232.243 113.233 232.904 113.306 233.491 113.634L237.126 115.603C238.044 116.113 238.594 117.061 238.558 118.082C238.521 119.394 237.53 120.524 236.208 120.706L231.472 121.399C231.031 121.472 230.591 121.436 230.187 121.29L227.727 120.451C226.589 120.05 225.818 118.993 225.855 117.79L225.892 116.66C225.928 115.347 226.846 114.254 228.094 114.035Z" fill="#FCD600"/>
<path d="M143.323 90.8489L140.643 88.4427C140.166 88.0053 139.542 87.7501 138.881 87.7501L134.769 87.6043C133.741 87.5678 132.787 88.1146 132.273 88.9896C131.612 90.1562 131.906 91.6144 132.934 92.4529L136.642 95.4423C136.972 95.6975 137.376 95.9163 137.78 95.9892L140.313 96.536C141.488 96.7912 142.699 96.2444 143.287 95.1871L143.837 94.2028C144.498 93.0727 144.278 91.6873 143.323 90.8489Z" fill="#FCD600"/>
<path opacity="0.06" d="M230.077 147.429L227.14 158.038C226.442 160.553 223.836 162.011 221.302 161.282L124.6 133.867C122.103 133.175 120.671 130.586 121.369 128.144L124.343 118.774L230.077 147.429Z" fill="white"/>
<path opacity="0.1" d="M123.792 133.612L138.844 137.95L137.559 142.653L123.315 135.362L123.792 133.612Z" fill="#010103"/>
<path opacity="0.1" d="M207.425 157.527L222.477 161.866L221.192 166.568L206.948 159.277L207.425 157.527Z" fill="#010103"/>
<path d="M223.969 143.194C226.075 140.015 225.187 135.742 221.986 133.651C218.785 131.559 214.482 132.441 212.376 135.62C210.27 138.799 211.157 143.072 214.359 145.163C217.56 147.255 221.863 146.373 223.969 143.194Z" fill="#F3F2EE"/>
<path opacity="0.1" d="M219.871 144.075C221.192 143.856 222.441 143.236 223.285 142.216C222.991 143.455 222.073 144.512 220.862 144.986C220.458 145.132 220.017 145.241 219.614 145.314C219.173 145.387 218.696 145.46 218.255 145.424C217.007 145.387 215.832 144.731 215.135 143.71C215.355 144.038 216.75 144.148 217.08 144.184C217.998 144.221 218.953 144.221 219.871 144.075Z" fill="#010103"/>
<path d="M143.82 119.958C144.248 116.177 141.509 112.767 137.7 112.341C133.892 111.916 130.458 114.636 130.03 118.418C129.601 122.199 132.341 125.609 136.149 126.035C139.957 126.46 143.391 123.74 143.82 119.958Z" fill="#F3F2EE"/>
<path opacity="0.1" d="M138.624 123.842C139.946 123.623 141.194 123.003 142.038 121.982C141.745 123.222 140.827 124.279 139.615 124.753C139.212 124.899 138.771 125.008 138.367 125.081C137.927 125.154 137.449 125.227 137.009 125.191C135.761 125.154 134.586 124.498 133.888 123.477C134.108 123.805 135.504 123.915 135.834 123.951C136.752 123.988 137.706 123.988 138.624 123.842Z" fill="#010103"/>
<path d="M97.3951 32.9565L98.8636 28.7275L97.8357 26.0662L95.4493 25.811L94.972 28.7275L94.4213 28.3265L93.3566 28.5817L94.201 31.3524L94.4947 32.9929L97.3951 32.9565Z" fill="#E9BD8E"/>
<path d="M78.7815 56.2884C79.5891 55.851 80.3968 55.377 81.2412 54.976C83.6276 53.8459 86.014 52.6793 88.3269 51.4398C89.7587 50.6742 91.2273 49.8721 92.1818 48.5597C92.7325 47.8306 93.0629 46.9921 93.4301 46.1171C95.229 41.6695 96.6975 37.076 97.8724 32.4096C96.9178 31.9357 94.2378 30.6597 93.3199 31.5347C93.0262 31.8263 92.8426 32.2273 92.6591 32.6283C91.8881 34.4876 91.0804 36.3833 90.236 38.2426C89.3182 40.3206 88.3636 42.3986 87.0419 44.2579C86.8584 44.5131 86.6748 44.7318 86.4178 44.8776C86.1608 45.0235 85.8304 45.0964 85.5 45.1328C80.6905 45.8255 77.8636 44.0391 73.1276 45.2057C72.0629 45.4609 69.1259 48.7055 68.465 49.544C67.951 50.2367 67.8409 51.1116 67.7675 51.9501C67.694 53.0803 67.7308 54.2469 68.2447 55.2677C68.8322 56.4343 70.0437 57.1998 71.3287 57.5279C72.6136 57.856 73.9353 57.7831 75.257 57.5644C76.5787 57.4186 77.6801 56.9082 78.7815 56.2884Z" fill="#D2D0C8"/>
<path d="M169.941 2.66125L160.469 30.6961L171.446 31.2794L170.528 55.778L182.056 26.5765L169.72 24.3162L169.941 2.66125Z" fill="#EFCE12"/>
<path d="M199.972 31.8627L184.332 42.4714L186.865 46.8826L175.08 58.9132L191.785 48.4502L189.729 42.6902L199.972 31.8627Z" fill="#EFCE12"/>
<path d="M89.0245 77.5423L87.7028 80.2036L91.8514 82.9014L94.5682 81.3338L94.6416 78.6725L92.2552 78.7089L92.5122 78.235L93.2832 77.9798L93.0262 77.2142L89.0245 77.5423Z" fill="#F8E0D7"/>
<path d="M63.8024 46.8827C64.3531 46.0442 65.0874 45.3515 65.9685 44.914C66.4458 44.6588 66.9598 44.4766 67.4738 44.4766C68.0245 44.4766 68.5752 44.6588 69.0891 44.914C75.514 48.1222 75.8077 58.5851 75.8811 64.7098C75.9178 68.6106 81.3881 70.7979 84.2885 72.8395C85.6101 73.7874 90.0157 76.0112 90.0524 77.4694C90.0524 77.7975 88.3269 81.0786 88.4003 81.1151C84.6556 79.6568 80.8741 78.1986 77.1294 76.7403C74.3392 75.6831 71.4388 75.0998 68.6853 73.8967C67.6573 73.4592 66.5927 72.9124 65.9318 72.001C65.4178 71.2719 65.1975 70.3969 65.014 69.5584C63.986 65.2931 63.2517 61.0641 62.7745 56.7259C62.5175 54.5749 62.2238 52.3511 62.5909 50.2002C62.7378 49.0336 63.1416 47.867 63.8024 46.8827Z" fill="#F4D6CA"/>
<path d="M58.1486 44.1849C58.0752 44.1849 58.0385 44.1849 57.965 44.1849C56.5332 44.3307 55.0647 44.8411 54.0367 45.8619C53.5227 46.3722 53.1556 47.0285 52.7885 47.6847C51.8706 49.3981 51.2098 51.2209 50.5122 53.0802C48.493 58.4028 46.8776 63.8712 45.7028 69.4126C45.1521 72.0739 41.7745 102.551 43.757 102.442C55.9825 101.64 68.208 101.239 80.4336 101.202C81.2413 85.4168 81.9755 69.0845 76.3584 54.2832C75.4773 51.9865 74.4493 49.6898 72.7972 47.8669C69.3094 43.9297 63.0682 43.7474 58.1486 44.1849Z" fill="#D2D0C8"/>
<path d="M66.6294 162.777V164.891L72.0262 167.553L74.743 164.891L72.0262 162.194H71.6958L71.5857 162.777H66.6294Z" fill="#D2D0C8"/>
<path d="M53.3392 162.194H52.972L50.292 164.891L52.972 167.553L58.3689 164.891V162.777H53.4126L53.3392 162.194Z" fill="#D2D0C8"/>
<path d="M77.9003 99.0151C74.8531 98.1401 71.5857 96.7548 68.3916 96.7912C68.0612 96.7912 67.7308 96.7912 67.3636 96.8277C67.0699 96.8641 66.7762 96.8641 66.4825 96.9006C64.3531 97.0829 61.9668 97.3016 59.4703 97.5933C59.3601 97.5933 59.2133 97.6297 59.1031 97.6297C55.9091 98.3224 53.8531 98.5776 52.4948 98.6505C51.2098 98.9786 49.9248 99.4161 48.75 99.9994C48.1626 100.291 47.6119 100.583 47.0979 100.947V104.374L53.1923 162.85H58.1853V163.433H58.222L63.6923 124.243L63.729 124.024L66.7395 163.47H66.7762V162.886H71.7692L78.1206 118.957L77.9003 99.0151Z" fill="#002A1C"/>
<path d="M67.6574 28.7639C68.2815 30.0399 68.5752 31.4981 68.5385 32.9199C68.5385 33.2845 68.5385 33.7584 68.8322 33.9771C69.1626 34.2323 68.8322 34.7427 69.0892 34.4511C69.3462 34.1594 70.264 33.0657 70.3007 32.6647C70.4476 31.7168 70.4843 30.769 70.4476 29.8211C70.4109 28.9826 70.3007 28.1077 69.7867 27.4515C69.493 27.0505 69.0892 26.7588 68.6853 26.5036C68.0979 26.1026 67.5105 25.7016 66.813 25.5193C65.6381 25.2276 64.8671 25.6287 65.8951 26.5401C66.5927 27.1598 67.2168 27.8889 67.6574 28.7639Z" fill="#1D3009"/>
<path d="M59.3601 44.6223C61.0122 44.8775 62.6276 45.0963 64.2797 45.3515C64.6101 43.9297 64.8304 42.4714 64.9406 41.0132C66.3724 40.8309 68.0979 40.4663 68.6853 38.9716C68.8689 38.4977 68.9056 37.9873 68.9423 37.4769C69.0525 35.3625 69.1993 33.2845 69.3094 31.17C69.3462 30.4409 69.3829 29.6753 69.1626 29.0191C68.7955 27.816 67.7308 27.0505 66.6661 26.5401C63.986 25.2641 60.7552 25.1547 58.1486 26.613C57.4511 27.014 56.7902 27.5244 56.3497 28.2535C55.6888 29.3837 55.6888 30.8054 55.7255 32.1543C55.7622 33.3938 55.7622 34.6333 55.799 35.8729C55.8357 37.2947 55.9458 38.9352 57.0105 39.7372C57.5612 40.1747 58.2955 40.2841 58.7727 40.8309C59.5804 41.7059 59.1032 43.3099 59.3601 44.6223Z" fill="#F5C298"/>
<path d="M69.4563 36.6385C69.4563 36.2375 69.3462 35.1074 68.722 35.8C68.5752 35.9823 68.5018 36.2375 68.5018 36.4927C68.465 36.7479 68.465 37.0031 68.3916 37.2218C68.1713 37.7687 67.5839 37.9509 67.0699 37.9145C66.8497 37.9145 66.6661 37.8416 66.4825 37.7322C66.299 37.6228 66.1888 37.4406 66.042 37.2947C65.7115 36.8937 65.4178 36.4927 65.0874 36.0552C64.5367 35.3625 63.3619 35.5813 62.5909 35.6542C61.6731 35.7271 60.7552 35.9458 59.9843 36.5291C59.9108 36.6021 59.8374 36.6385 59.764 36.7114C59.5804 36.8573 59.3969 37.0031 59.1766 37.076C58.479 37.3676 57.5979 36.9666 57.1573 36.3104C56.9371 36.0188 56.7535 35.6177 56.4231 35.5448C56.1661 35.5084 55.8724 35.6907 55.7255 35.9094C55.5787 36.1646 55.5053 36.4562 55.4685 36.7479C55.3584 37.8416 55.4318 38.9717 55.8357 39.956C56.7535 42.1069 58.6993 42.4715 60.6451 42.508C61.4161 42.5444 62.1871 42.5444 62.9948 42.5809C64.4266 42.6173 65.9318 42.6538 67.1434 41.8518C68.2448 41.1591 68.9423 39.956 69.236 38.6436C69.3829 38.0239 69.493 37.3312 69.4563 36.6385ZM64.1329 39.3363C63.3619 39.8102 62.5175 39.7738 61.7098 39.4821C61.3427 39.3727 61.5262 38.753 61.8934 38.8988C62.5909 39.154 63.215 39.1905 63.8759 38.7894C64.1696 38.5707 64.4633 39.1175 64.1329 39.3363Z" fill="#1D3009"/>
<path d="M70.3374 25.2641C70.4843 24.7538 70.6311 24.2434 70.7046 23.733C70.2273 23.8788 69.6766 23.8788 69.1993 23.7694C69.1993 23.4778 69.236 23.1497 69.236 22.858C69.236 22.6028 65.8951 22.2383 65.6014 22.2018C63.0315 21.8737 60.7185 21.5456 58.3322 22.7851C56.2762 23.8788 54.9178 25.5923 54.514 27.8525C54.1101 30.0399 54.6608 32.9564 55.8357 34.8521C55.8724 34.2688 55.5787 32.847 55.7622 32.3002C55.8724 31.7534 56.0927 31.2065 56.3864 30.7326C56.9738 29.7847 57.8182 28.9827 58.8094 28.4358C60.3514 27.5609 62.1504 27.1599 63.8759 27.014C65.4913 26.8682 67.4371 26.7589 69.0157 27.2692C69.75 27.5244 69.8969 27.7067 70.3741 26.9776C70.4476 26.8318 71.1818 25.3006 71.1084 25.2641C70.8881 25.3006 70.6311 25.2641 70.3374 25.2641Z" fill="#1D3009"/>
<path d="M13.5419 128.581L17.9108 117.28L18.1678 117.17C18.1678 116.04 18.2045 114.874 18.2045 113.743C18.278 107.692 18.3147 101.676 18.3881 95.6247C18.4248 90.3021 16.8094 82.0265 22.6836 79.2558L78.4143 52.8251C84.6189 49.8721 92.035 50.9294 97.5052 55.5229L116.523 71.4907L117.441 71.0532L138.918 68.0273C146.995 68.1003 154.337 72.7302 157.825 79.985L163.075 90.8854L21.5454 157.965L14.0926 142.471C12 138.133 11.7797 133.102 13.5419 128.581Z" fill="#C51A1B"/>
<path d="M63.5821 93.6925L26.3916 111.337L24.8863 86.693C24.8129 85.4534 25.4738 84.3233 26.5384 83.8494L52.8252 71.3813L63.5821 93.6925Z" fill="#F3F2EE"/>
<path d="M59.1766 68.319L80.4703 58.2206C84.986 56.0697 90.3829 56.8353 94.3846 60.1893L108.776 72.2563L69.9336 90.6667L59.1766 68.319Z" fill="#F3F2EE"/>
<g opacity="0.2">
<path d="M26.2815 92.1613C25.9143 92.6717 25.5472 93.1457 25.1801 93.656L24.7762 86.9116C24.7028 85.6721 25.3636 84.542 26.4283 84.0681L35.5332 79.7662C32.486 83.8858 29.3654 88.0053 26.2815 92.1613Z" fill="#D2D0C8"/>
<path d="M27.9335 97.4111C33 90.5209 38.1765 82.938 43.0961 75.9384L51.687 72.0376C48.236 79.8028 42.986 87.7502 38.3601 94.8227C35.5699 99.0881 32.6696 103.244 29.5489 107.291C28.521 108.603 27.4196 109.916 26.3182 111.192L25.6573 100.51C26.4283 99.4891 27.1993 98.4319 27.9335 97.4111Z" fill="#D2D0C8"/>
<path d="M72.3199 78.5268C74.3024 75.3186 76.4685 72.2198 78.6713 69.1575C80.9108 66.0587 83.187 62.9235 85.6835 60.0435C86.5279 59.0956 87.3723 58.1842 88.2167 57.2363C90.4195 57.6373 92.5489 58.6217 94.3846 60.1893L94.5314 60.2986C92.4021 64.0536 90.1993 67.7722 88.1066 71.5636C84.986 77.1414 80.9842 82.0995 77.2028 87.2398L69.9335 90.6667L67.9877 86.62C69.4196 83.9223 70.7045 81.1151 72.3199 78.5268Z" fill="#D2D0C8"/>
</g>
<path opacity="0.1" d="M109.474 116.259C109.033 115.676 108.666 115.056 108.336 114.4C105.215 107.91 108.923 99.6713 116.67 95.9893C119.68 94.5675 122.874 94.0571 125.811 94.3123C121.516 97.5569 118.469 101.932 116.523 106.634C115.531 109.041 114.981 111.374 114.797 113.671L109.474 116.259Z" fill="#010103"/>
<path opacity="0.1" d="M36.1941 151.038C35.7535 150.455 35.3864 149.835 35.0927 149.179C31.972 142.69 35.5332 134.487 43.0961 130.914C46.0332 129.529 49.1538 129.019 52.0542 129.347C47.8689 132.555 44.9318 136.857 43.0594 141.523C42.1049 143.893 41.5909 146.226 41.4441 148.486L36.1941 151.038Z" fill="#010103"/>
<path d="M138.488 111.557C141.022 104.438 137.264 96.6271 130.094 94.1113C122.925 91.5955 115.059 95.3274 112.526 102.447C109.992 109.566 113.75 117.376 120.92 119.892C128.089 122.408 135.955 118.676 138.488 111.557Z" fill="#440000"/>
<path d="M131.442 112.039C134.243 108.775 133.849 103.874 130.562 101.093C127.275 98.3112 122.339 98.7024 119.538 101.966C116.737 105.23 117.131 110.131 120.418 112.913C123.705 115.695 128.64 115.303 131.442 112.039Z" fill="#700809"/>
<path opacity="0.1" d="M126.619 112.468C125.224 113.014 123.645 113.16 122.213 112.686C123.205 113.707 124.746 114.217 126.178 113.962C126.656 113.889 127.133 113.707 127.573 113.525C128.051 113.342 128.528 113.124 128.968 112.832C130.143 112.066 130.914 110.718 130.988 109.332C130.951 109.77 129.703 110.681 129.372 110.9C128.491 111.52 127.61 112.066 126.619 112.468Z" fill="#700809"/>
<path d="M59.091 153.557C65.5981 149.652 67.6852 141.248 63.7527 134.786C59.8201 128.325 51.357 126.252 44.8499 130.157C38.3428 134.062 36.2557 142.466 40.1882 148.928C44.1208 155.389 52.5838 157.462 59.091 153.557Z" fill="#440000"/>
<path d="M57.708 147.174C60.6818 144.039 60.5349 139.117 57.3776 136.2C54.2203 133.248 49.264 133.393 46.3269 136.529C43.3531 139.664 43.5 144.585 46.6573 147.502C49.7779 150.455 54.7342 150.309 57.708 147.174Z" fill="#700809"/>
<path opacity="0.1" d="M53.1189 147.32C51.7237 147.867 50.1451 148.012 48.7133 147.538C49.7045 148.559 51.2465 149.07 52.6783 148.814C53.1556 148.741 53.6328 148.559 54.0734 148.377C54.5507 148.195 55.0279 147.976 55.4685 147.684C56.6433 146.919 57.4143 145.57 57.4877 144.184C57.451 144.622 56.2028 145.533 55.8723 145.752C54.9912 146.408 54.1101 146.955 53.1189 147.32Z" fill="#700809"/>
<path opacity="0.25" d="M78.4878 97.9214L83.3339 95.6247C83.8479 95.3695 84.0682 94.7497 83.8479 94.2393L83.3706 93.255C83.1136 92.7446 82.4895 92.5259 81.9755 92.7446L77.1294 95.0414C76.6154 95.2966 76.3951 95.9163 76.6154 96.4267L77.0927 97.411C77.3497 97.9579 77.9738 98.1766 78.4878 97.9214Z" fill="#010103"/>
<path d="M118.579 76.8497L130.327 66.0587L135.761 71.8552L139.615 59.6424L148.463 64.4911L150.923 60.0799L138.624 56.252L133.741 65.0379L129.299 62.6318L114.173 74.4071L118.579 76.8497Z" fill="#990607"/>
<path d="M51.2832 84.0316L48.4563 85.0159L49.521 89.8282L52.5682 90.5937L54.4772 88.7345L52.7517 87.1304L53.2657 86.9481L54 87.3127L54.3304 86.5836L51.2832 84.0316Z" fill="#F6C497"/>
<path d="M54.8811 44.586C55.8724 44.3672 56.8636 44.3672 57.8182 44.6589C58.3321 44.8047 58.8094 45.0599 59.2133 45.4245C59.6171 45.8255 59.8741 46.3359 60.0577 46.8463C62.3706 53.6271 55.2482 61.2829 50.9528 65.6941C48.1993 68.5012 50.5856 73.8603 51.2465 77.3601C51.5402 78.9642 53.1189 83.5941 52.0909 84.6513C51.8706 84.8701 48.3094 86.0367 48.3461 86.1096C46.694 82.464 45.0419 78.8184 43.3898 75.1727C42.1783 72.475 40.4895 70.0324 39.3514 67.2617C38.9108 66.2045 38.5437 65.1108 38.7272 63.9807C38.8741 63.1057 39.3147 62.3401 39.7919 61.611C42.0682 57.856 44.5279 54.3562 47.208 50.8929C48.5664 49.1795 49.8881 47.3931 51.687 46.0807C52.5682 45.388 53.7063 44.8412 54.8811 44.586Z" fill="#D2D0C8"/>
<path d="M41.2972 32.446C40.8934 30.6232 41.8479 29.0556 43.5734 28.6546C45.4091 28.2536 46.8409 29.2743 47.2448 31.0972C47.6486 32.847 46.8042 34.4511 44.9685 34.8886C43.2063 35.2896 41.701 34.1959 41.2972 32.446ZM40.9301 25.009L34.7622 1.09369L39.6084 0L44.3811 24.2434L40.9301 25.009Z" fill="#1C3009"/>
</g>
<defs>
<clipPath id="clip0_44_678">
<rect width="252" height="179" fill="white"/>
</clipPath>
</defs>
</svg>
