<svg width="18" height="18" viewBox="0 0 18 18" fill="none" xmlns="http://www.w3.org/2000/svg">
<g id="Icon Library">
<path id="Vector-14" fill-rule="evenodd" clip-rule="evenodd" d="M6.308 2.00001H11.829C11.8863 2.00001 11.9433 2.00343 12 2.01027C14.2473 2.15696 15.9924 3.89765 16 6.00027V12.0007C15.9917 14.2146 14.0641 16.0041 11.692 16H6.308C3.93551 16.0041 2.00772 14.214 2 11.9997V6.00027C2.00772 3.78596 3.93551 1.99588 6.308 2.00001Z" stroke="#4E4E4E" stroke-width="1.5" stroke-linecap="round" stroke-linejoin="round"/>
<path id="Vector-15" d="M15.5762 7.11766C15.9904 7.11766 16.3262 6.78187 16.3262 6.36766C16.3262 5.95345 15.9904 5.61766 15.5762 5.61766V7.11766ZM11.5 6.36766H10.75C10.75 6.78187 11.0858 7.11766 11.5 7.11766V6.36766ZM12.25 2.01123C12.25 1.59702 11.9142 1.26123 11.5 1.26123C11.0858 1.26123 10.75 1.59702 10.75 2.01123H12.25ZM11.0381 9.90241C11.4523 9.90241 11.7881 9.56662 11.7881 9.15241C11.7881 8.73819 11.4523 8.40241 11.0381 8.40241V9.90241ZM4.92383 8.40241C4.50961 8.40241 4.17383 8.73819 4.17383 9.15241C4.17383 9.56662 4.50961 9.90241 4.92383 9.90241V8.40241ZM7.98097 6.84528C8.39519 6.84528 8.73097 6.50949 8.73097 6.09528C8.73097 5.68106 8.39519 5.34528 7.98097 5.34528V6.84528ZM4.92383 5.34528C4.50961 5.34528 4.17383 5.68106 4.17383 6.09528C4.17383 6.50949 4.50961 6.84528 4.92383 6.84528V5.34528ZM12.0572 12.9596C12.4714 12.9596 12.8072 12.6238 12.8072 12.2096C12.8072 11.7954 12.4714 11.4596 12.0572 11.4596V12.9596ZM4.92383 11.4596C4.50961 11.4596 4.17383 11.7954 4.17383 12.2096C4.17383 12.6238 4.50961 12.9596 4.92383 12.9596V11.4596ZM15.5762 5.61766H11.5V7.11766H15.5762V5.61766ZM12.25 6.36766V2.01123H10.75V6.36766H12.25ZM11.0381 8.40241H4.92383V9.90241H11.0381V8.40241ZM7.98097 5.34528H4.92383V6.84528H7.98097V5.34528ZM12.0572 11.4596H4.92383V12.9596H12.0572V11.4596Z" fill="#4E4E4E"/>
</g>
</svg>
