<svg width="34" height="34" viewBox="0 0 34 34" fill="none" xmlns="http://www.w3.org/2000/svg">
<g id="Icon Library">
<path id="Vector-14" fill-rule="evenodd" clip-rule="evenodd" d="M11.9152 3.77785H22.3437C22.452 3.77785 22.5597 3.78431 22.6667 3.79724C26.9117 4.07431 30.2079 7.36228 30.2223 11.3339V22.668C30.2067 26.8499 26.5656 30.2301 22.0849 30.2223H11.9152C7.4338 30.2301 3.79241 26.8488 3.77783 22.6662V11.3339C3.79241 7.1513 7.4338 3.77004 11.9152 3.77785Z" stroke="#4E4E4E" stroke-width="1.5" stroke-linecap="round" stroke-linejoin="round"/>
<path id="Vector-15" d="M29.4217 12.7776C29.8359 12.7776 30.1717 12.4419 30.1717 12.0276C30.1717 11.6134 29.8359 11.2776 29.4217 11.2776V12.7776ZM21.7222 12.0276H20.9722C20.9722 12.4419 21.308 12.7776 21.7222 12.7776V12.0276ZM22.4722 3.79883C22.4722 3.38461 22.1364 3.04883 21.7222 3.04883C21.308 3.04883 20.9722 3.38461 20.9722 3.79883H22.4722ZM20.8497 18.0377C21.264 18.0377 21.5997 17.7019 21.5997 17.2877C21.5997 16.8735 21.264 16.5377 20.8497 16.5377V18.0377ZM9.30054 16.5377C8.88632 16.5377 8.55054 16.8735 8.55054 17.2877C8.55054 17.7019 8.88632 18.0377 9.30054 18.0377V16.5377ZM15.0751 12.2631C15.4894 12.2631 15.8251 11.9274 15.8251 11.5131C15.8251 11.0989 15.4894 10.7631 15.0751 10.7631V12.2631ZM9.30054 10.7631C8.88632 10.7631 8.55054 11.0989 8.55054 11.5131C8.55054 11.9274 8.88632 12.2631 9.30054 12.2631V10.7631ZM22.7746 23.8124C23.1888 23.8124 23.5246 23.4766 23.5246 23.0624C23.5246 22.6481 23.1888 22.3124 22.7746 22.3124V23.8124ZM9.30054 22.3124C8.88632 22.3124 8.55054 22.6481 8.55054 23.0624C8.55054 23.4766 8.88632 23.8124 9.30054 23.8124V22.3124ZM29.4217 11.2776H21.7222V12.7776H29.4217V11.2776ZM22.4722 12.0276V3.79883H20.9722V12.0276H22.4722ZM20.8497 16.5377H9.30054V18.0377H20.8497V16.5377ZM15.0751 10.7631H9.30054V12.2631H15.0751V10.7631ZM22.7746 22.3124H9.30054V23.8124H22.7746V22.3124Z" fill="#4E4E4E"/>
</g>
</svg>
