<svg width="25" height="25" viewBox="0 0 25 25" fill="none" xmlns="http://www.w3.org/2000/svg">
<path d="M0 0H14.076C18.5362 0 22.1519 3.61571 22.1519 8.0759C22.1519 12.5361 18.5362 16.1518 14.076 16.1518H9.17721L0 0Z" fill="#006F4A"/>
<path d="M0 24.395H17.7128C21.7374 24.395 25 21.1324 25 17.1078C25 13.0831 21.7374 9.82054 17.7128 9.82054H9.09132L0 24.395Z" fill="#990607"/>
<path d="M7.24881 12.7622C4.96769 8.83994 0.114031 0.205244 0.000305176 0.00219727L10.1674 9.82543L7.24881 12.7622Z" fill="#DFDFDF"/>
<path d="M9.43928 9.2699L0 24.395L15.2344 9.8227H10.0104L9.43928 9.2699Z" fill="#DFDFDF"/>
<path d="M10.0041 9.82331L0.00109863 0L12.1836 9.82331H10.0041Z" fill="#009865"/>
<path fill-rule="evenodd" clip-rule="evenodd" d="M14.0823 7.60679C15.5678 7.60679 16.7721 6.40061 16.7721 4.91271C16.7721 4.8559 16.7704 4.79949 16.7669 4.74355C16.6912 5.81235 15.8016 6.65588 14.7152 6.65588C13.5792 6.65588 12.6582 5.7335 12.6582 4.5957C12.6582 3.45789 13.5792 2.53552 14.7152 2.53552C15.1246 2.53552 15.5062 2.65534 15.8267 2.8619C15.357 2.46077 14.7479 2.21863 14.0823 2.21863C12.5967 2.21863 11.3924 3.42481 11.3924 4.91271C11.3924 6.40061 12.5967 7.60679 14.0823 7.60679Z" fill="#FCD600"/>
<path d="M17.7215 9.82544L0.158203 24.4052L15.0316 9.82544H17.7215Z" fill="#C51A1B"/>
<path d="M14.7152 3.48645L14.8988 4.21401L15.5812 3.90412L15.1277 4.50149L15.795 4.84263L15.046 4.85997L15.1958 5.59525L14.7152 5.0195L14.2346 5.59525L14.3844 4.85997L13.6354 4.84263L14.3027 4.50149L13.8492 3.90412L14.5316 4.21401L14.7152 3.48645Z" fill="#FCD600"/>
</svg>
